<mxfile host="Electron" modified="2023-06-12T23:55:52.223Z" agent="Mozilla/5.0 (Macintosh; Intel Mac OS X 10_15_7) AppleWebKit/537.36 (KHTML, like Gecko) draw.io/21.3.7 Chrome/112.0.5615.204 Electron/24.5.0 Safari/537.36" etag="sIewcKZ8yHre4J7nhY82" version="21.3.7" type="device">
  <diagram name="Page-1" id="hw6oiQ31l7DK528irrPP">
    <mxGraphModel dx="1114" dy="894" grid="1" gridSize="10" guides="1" tooltips="1" connect="1" arrows="1" fold="1" page="1" pageScale="1" pageWidth="850" pageHeight="1100" math="1" shadow="0">
      <root>
        <mxCell id="0" />
        <mxCell id="1" parent="0" />
        <mxCell id="0B67MQePRuzJ2LEqM6Md-3" value="" style="group" vertex="1" connectable="0" parent="1">
          <mxGeometry x="125" y="200" width="120" height="80" as="geometry" />
        </mxCell>
        <mxCell id="0B67MQePRuzJ2LEqM6Md-4" value="" style="rounded=1;whiteSpace=wrap;html=1;arcSize=5;fontFamily=SF Mono;" vertex="1" parent="0B67MQePRuzJ2LEqM6Md-3">
          <mxGeometry width="120" height="80" as="geometry" />
        </mxCell>
        <mxCell id="0B67MQePRuzJ2LEqM6Md-5" value="ref_count: 2" style="rounded=0;whiteSpace=wrap;html=1;fontFamily=SF Mono;" vertex="1" parent="0B67MQePRuzJ2LEqM6Md-3">
          <mxGeometry y="10" width="120" height="30" as="geometry" />
        </mxCell>
        <mxCell id="0B67MQePRuzJ2LEqM6Md-9" value="" style="endArrow=classic;html=1;rounded=0;exitX=1;exitY=0.75;exitDx=0;exitDy=0;entryX=0.5;entryY=1;entryDx=0;entryDy=0;" edge="1" parent="0B67MQePRuzJ2LEqM6Md-3" source="0B67MQePRuzJ2LEqM6Md-4" target="0B67MQePRuzJ2LEqM6Md-4">
          <mxGeometry width="50" height="50" relative="1" as="geometry">
            <mxPoint x="205" y="70" as="sourcePoint" />
            <mxPoint x="255" y="20" as="targetPoint" />
            <Array as="points">
              <mxPoint x="185" y="60" />
              <mxPoint x="185" y="120" />
              <mxPoint x="60" y="120" />
            </Array>
          </mxGeometry>
        </mxCell>
        <mxCell id="0B67MQePRuzJ2LEqM6Md-6" value="a" style="text;html=1;strokeColor=none;fillColor=none;align=center;verticalAlign=middle;whiteSpace=wrap;rounded=0;fontFamily=SF Mono;" vertex="1" parent="1">
          <mxGeometry x="155" y="90" width="60" height="30" as="geometry" />
        </mxCell>
        <mxCell id="0B67MQePRuzJ2LEqM6Md-7" value="" style="endArrow=classic;html=1;rounded=0;exitX=0.5;exitY=1;exitDx=0;exitDy=0;entryX=0.5;entryY=0;entryDx=0;entryDy=0;" edge="1" parent="1" source="0B67MQePRuzJ2LEqM6Md-6" target="0B67MQePRuzJ2LEqM6Md-4">
          <mxGeometry width="50" height="50" relative="1" as="geometry">
            <mxPoint x="405" y="370" as="sourcePoint" />
            <mxPoint x="455" y="320" as="targetPoint" />
          </mxGeometry>
        </mxCell>
        <mxCell id="0B67MQePRuzJ2LEqM6Md-8" value="$$obj$$" style="text;html=1;strokeColor=none;fillColor=none;align=center;verticalAlign=middle;whiteSpace=wrap;rounded=0;" vertex="1" parent="1">
          <mxGeometry x="50" y="220" width="60" height="30" as="geometry" />
        </mxCell>
        <mxCell id="0B67MQePRuzJ2LEqM6Md-10" value="" style="shape=flexArrow;endArrow=classic;html=1;rounded=0;fillColor=#f5f5f5;strokeColor=#666666;" edge="1" parent="1">
          <mxGeometry width="50" height="50" relative="1" as="geometry">
            <mxPoint x="350" y="200" as="sourcePoint" />
            <mxPoint x="410" y="200" as="targetPoint" />
          </mxGeometry>
        </mxCell>
        <mxCell id="0B67MQePRuzJ2LEqM6Md-11" value="" style="group" vertex="1" connectable="0" parent="1">
          <mxGeometry x="500" y="200" width="120" height="80" as="geometry" />
        </mxCell>
        <mxCell id="0B67MQePRuzJ2LEqM6Md-12" value="" style="rounded=1;whiteSpace=wrap;html=1;arcSize=5;fontFamily=SF Mono;" vertex="1" parent="0B67MQePRuzJ2LEqM6Md-11">
          <mxGeometry width="120" height="80" as="geometry" />
        </mxCell>
        <mxCell id="0B67MQePRuzJ2LEqM6Md-13" value="ref_count: 1" style="rounded=0;whiteSpace=wrap;html=1;fontFamily=SF Mono;" vertex="1" parent="0B67MQePRuzJ2LEqM6Md-11">
          <mxGeometry y="10" width="120" height="30" as="geometry" />
        </mxCell>
        <mxCell id="0B67MQePRuzJ2LEqM6Md-14" value="" style="endArrow=classic;html=1;rounded=0;exitX=1;exitY=0.75;exitDx=0;exitDy=0;entryX=0.5;entryY=1;entryDx=0;entryDy=0;" edge="1" parent="0B67MQePRuzJ2LEqM6Md-11" source="0B67MQePRuzJ2LEqM6Md-12" target="0B67MQePRuzJ2LEqM6Md-12">
          <mxGeometry width="50" height="50" relative="1" as="geometry">
            <mxPoint x="205" y="70" as="sourcePoint" />
            <mxPoint x="255" y="20" as="targetPoint" />
            <Array as="points">
              <mxPoint x="185" y="60" />
              <mxPoint x="185" y="120" />
              <mxPoint x="60" y="120" />
            </Array>
          </mxGeometry>
        </mxCell>
        <mxCell id="0B67MQePRuzJ2LEqM6Md-15" value="a" style="text;html=1;strokeColor=none;fillColor=none;align=center;verticalAlign=middle;whiteSpace=wrap;rounded=0;fontFamily=SF Mono;" vertex="1" parent="1">
          <mxGeometry x="530" y="90" width="60" height="30" as="geometry" />
        </mxCell>
        <mxCell id="0B67MQePRuzJ2LEqM6Md-17" value="$$obj$$" style="text;html=1;strokeColor=none;fillColor=none;align=center;verticalAlign=middle;whiteSpace=wrap;rounded=0;" vertex="1" parent="1">
          <mxGeometry x="425" y="220" width="60" height="30" as="geometry" />
        </mxCell>
        <mxCell id="0B67MQePRuzJ2LEqM6Md-18" value="&lt;font style=&quot;font-size: 14px;&quot;&gt;Ã—&lt;/font&gt;" style="endArrow=classic;html=1;rounded=0;exitX=0.5;exitY=1;exitDx=0;exitDy=0;entryX=0.5;entryY=0;entryDx=0;entryDy=0;fontColor=#FF0000;dashed=1;" edge="1" parent="1">
          <mxGeometry x="-0.25" width="50" height="50" relative="1" as="geometry">
            <mxPoint x="559.5" y="120" as="sourcePoint" />
            <mxPoint x="559.5" y="200" as="targetPoint" />
            <mxPoint as="offset" />
          </mxGeometry>
        </mxCell>
      </root>
    </mxGraphModel>
  </diagram>
</mxfile>
